<svg xmlns="http://www.w3.org/2000/svg">
    <symbol id="logo" width="42" height="17" viewBox="0 0 42 17" fill="none">
        <path d="M0 11V0H12.8903C14.6428 0 16.3497 0.558477 17.7633 1.59437C18.6084 2.21371 19.2833 3.0366 19.7252 3.98661L21.2165 7.19231C21.7922 5.78595 22.5143 4.44406 23.3707 3.18876L23.4446 3.08053C23.6905 2.72004 23.9717 2.38484 24.2838 2.07984L24.919 1.4592C25.333 1.05464 25.8242 0.737558 26.3634 0.526835L26.4183 0.505373C27.2728 0.171398 28.1822 0 29.0996 0H42V11H0Z" fill="#F9F9F9" />
        <rect y="13" width="42" height="4" fill="#F9F9F9" />
    </symbol>
    <symbol id="eye-open" width="20" height="20" viewBox="0 0 20 20" fill="none">
        <path d="M0.833313 10C0.833313 10 4.16665 3.33334 9.99998 3.33334C15.8333 3.33334 19.1666 10 19.1666 10C19.1666 10 15.8333 16.6667 9.99998 16.6667C4.16665 16.6667 0.833313 10 0.833313 10Z" stroke="#F9F9F9" stroke-width="1.3" stroke-linecap="round" stroke-linejoin="round" />
        <path d="M10 12.5C11.3807 12.5 12.5 11.3807 12.5 10C12.5 8.61929 11.3807 7.5 10 7.5C8.61929 7.5 7.5 8.61929 7.5 10C7.5 11.3807 8.61929 12.5 10 12.5Z" stroke="#F9F9F9" stroke-width="1.3" stroke-linecap="round" stroke-linejoin="round" />
    </symbol>
    <symbol id="eye-close" width="20" height="20" viewBox="0 0 20 20" fill="none">
        <g clip-path="url(#clip0_18802_99)">
            <path d="M14.9499 14.95C13.5254 16.0358 11.7908 16.6374 9.99992 16.6667C4.16659 16.6667 0.833252 10 0.833252 10C1.86983 8.06825 3.30753 6.38051 5.04992 5.05M8.24992 3.53333C8.82353 3.39907 9.41081 3.33195 9.99992 3.33333C15.8333 3.33333 19.1666 10 19.1666 10C18.6607 10.9463 18.0575 11.8373 17.3666 12.6583M11.7666 11.7667C11.5377 12.0123 11.2617 12.2093 10.955 12.3459C10.6484 12.4826 10.3173 12.556 9.98166 12.562C9.64599 12.5679 9.31256 12.5061 9.00126 12.3804C8.68997 12.2547 8.40719 12.0675 8.16979 11.8301C7.9324 11.5927 7.74525 11.31 7.61951 10.9987C7.49377 10.6874 7.43202 10.3539 7.43795 10.0183C7.44387 9.68258 7.51734 9.35154 7.65398 9.04487C7.79062 8.73821 7.98763 8.46221 8.23325 8.23333" stroke="#F9F9F9" stroke-width="1.3" stroke-linecap="round" stroke-linejoin="round" />
            <path d="M0.833252 0.833344L19.1666 19.1667" stroke="#F9F9F9" stroke-width="1.3" stroke-linecap="round" stroke-linejoin="round" />
        </g>
        <defs>
            <clipPath id="clip0_18802_99">
                <rect width="20" height="20" fill="white" />
            </clipPath>
        </defs>
    </symbol>
    <symbol id="warn" width="18" height="18" viewBox="0 0 18 18" fill="none" xmlns="http://www.w3.org/2000/svg">
        <g clip-path="url(#clip0_18803_192)">
            <path fill-rule="evenodd" clip-rule="evenodd" d="M9 16.3125C10.9394 16.3125 12.7994 15.5421 14.1707 14.1707C15.5421 12.7994 16.3125 10.9394 16.3125 9C16.3125 7.0606 15.5421 5.20064 14.1707 3.82928C12.7994 2.45792 10.9394 1.6875 9 1.6875C7.0606 1.6875 5.20064 2.45792 3.82928 3.82928C2.45792 5.20064 1.6875 7.0606 1.6875 9C1.6875 10.9394 2.45792 12.7994 3.82928 14.1707C5.20064 15.5421 7.0606 16.3125 9 16.3125ZM9 18C11.3869 18 13.6761 17.0518 15.364 15.364C17.0518 13.6761 18 11.3869 18 9C18 6.61305 17.0518 4.32387 15.364 2.63604C13.6761 0.948212 11.3869 0 9 0C6.61305 0 4.32387 0.948212 2.63604 2.63604C0.948212 4.32387 0 6.61305 0 9C0 11.3869 0.948212 13.6761 2.63604 15.364C4.32387 17.0518 6.61305 18 9 18ZM10.125 12.375C10.125 12.6734 10.0065 12.9595 9.7955 13.1705C9.58452 13.3815 9.29837 13.5 9 13.5C8.70163 13.5 8.41548 13.3815 8.2045 13.1705C7.99353 12.9595 7.875 12.6734 7.875 12.375C7.875 12.0766 7.99353 11.7905 8.2045 11.5795C8.41548 11.3685 8.70163 11.25 9 11.25C9.29837 11.25 9.58452 11.3685 9.7955 11.5795C10.0065 11.7905 10.125 12.0766 10.125 12.375ZM9.84375 5.34375C9.84375 5.11997 9.75486 4.90536 9.59662 4.74713C9.43839 4.58889 9.22378 4.5 9 4.5C8.77622 4.5 8.56161 4.58889 8.40338 4.74713C8.24514 4.90536 8.15625 5.11997 8.15625 5.34375V9.28125C8.15625 9.50503 8.24514 9.71964 8.40338 9.87787C8.56161 10.0361 8.77622 10.125 9 10.125C9.22378 10.125 9.43839 10.0361 9.59662 9.87787C9.75486 9.71964 9.84375 9.50503 9.84375 9.28125V5.34375Z" fill="#E90516" />
        </g>
        <defs>
            <clipPath id="clip0_18803_192">
                <rect width="18" height="18" fill="white" />
            </clipPath>
        </defs>
    </symbol>
    <symbol id="success" width="18" height="18" viewBox="0 0 18 18" fill="none">
        <g clip-path="url(#clip0_18803_200)">
            <path d="M8.43758 12.24L5.3999 8.81959L6.41222 7.67999L8.43758 9.95919L12.4869 5.39999L13.4999 6.5404L8.43758 12.2384V12.24Z" fill="#30B94D" />
            <path fill-rule="evenodd" clip-rule="evenodd" d="M0 9C0 4.02955 4.02955 0 9 0C13.9705 0 18 4.02955 18 9C18 13.9705 13.9705 18 9 18C4.02955 18 0 13.9705 0 9ZM9 16.3636C8.03299 16.3636 7.07546 16.1732 6.18206 15.8031C5.28866 15.4331 4.4769 14.8907 3.79312 14.2069C3.10935 13.5231 2.56694 12.7113 2.19689 11.8179C1.82683 10.9245 1.63636 9.96701 1.63636 9C1.63636 8.03299 1.82683 7.07546 2.19689 6.18206C2.56694 5.28866 3.10935 4.4769 3.79312 3.79312C4.4769 3.10935 5.28866 2.56694 6.18206 2.19689C7.07546 1.82683 8.03299 1.63636 9 1.63636C10.953 1.63636 12.8259 2.41217 14.2069 3.79312C15.5878 5.17407 16.3636 7.04704 16.3636 9C16.3636 10.953 15.5878 12.8259 14.2069 14.2069C12.8259 15.5878 10.953 16.3636 9 16.3636Z" fill="#30B94D" />
        </g>
        <defs>
            <clipPath id="clip0_18803_200">
                <rect width="18" height="18" fill="white" />
            </clipPath>
        </defs>
    </symbol>
    <symbol id="rec" width="50" height="50" viewBox="0 0 50 50" fill="none">
        <circle cx="25" cy="25" r="20" fill="#E90516" />
        <circle cx="25" cy="25" r="24" stroke="#F9F9F9" stroke-width="2" />
    </symbol>
    <symbol id="stop-rec" width="50" height="50" viewBox="0 0 50 50" fill="none">
        <circle cx="25" cy="25" r="24" stroke="#F9F9F9" stroke-width="2" />
        <rect x="15" y="15" width="20" height="20" rx="3" fill="#E90516" />
    </symbol>
    <symbol id="sand-clock" width="20" height="20" viewBox="0 0 20 20" fill="none">
        <path d="M10 10L6.43926 7.03274C5.91022 6.59187 5.6457 6.37144 5.45553 6.10122C5.28704 5.86179 5.16191 5.59464 5.08585 5.31192C5 4.99284 5 4.64851 5 3.95985V1.66669M10 10L13.5607 7.03274C14.0898 6.59187 14.3543 6.37144 14.5445 6.10122C14.713 5.86179 14.8381 5.59464 14.9142 5.31192C15 4.99284 15 4.64851 15 3.95985V1.66669M10 10L6.43926 12.9673C5.91022 13.4082 5.6457 13.6286 5.45553 13.8988C5.28704 14.1382 5.16191 14.4054 5.08585 14.6881C5 15.0072 5 15.3515 5 16.0402V18.3334M10 10L13.5607 12.9673C14.0898 13.4082 14.3543 13.6286 14.5445 13.8988C14.713 14.1382 14.8381 14.4054 14.9142 14.6881C15 15.0072 15 15.3515 15 16.0402V18.3334" stroke="#F9F9F9" stroke-width="2" stroke-linecap="round" stroke-linejoin="round" />
        <path d="M3.33325 1.66669H16.6666M3.33325 18.3334H16.6666" stroke="#F9F9F9" stroke-width="2" stroke-linecap="round" stroke-linejoin="round" />
    </symbol>
    <symbol id="chart" width="20" height="20" viewBox="0 0 20 20" fill="none">
        <g clip-path="url(#clip0_18746_5038)">
            <path opacity="0.8" d="M14.3334 11.6666C14.5643 11.6666 14.6797 11.6666 14.7732 11.7179C14.8504 11.7602 14.9222 11.8396 14.9566 11.9206C14.9982 12.0188 14.9877 12.1232 14.9668 12.3322C14.8581 13.4156 14.4852 14.4595 13.8765 15.3704C13.144 16.4668 12.1028 17.3212 10.8846 17.8258C9.66647 18.3304 8.32602 18.4624 7.03282 18.2052C5.73961 17.948 4.55172 17.313 3.61937 16.3807C2.68702 15.4483 2.05208 14.2604 1.79485 12.9672C1.53761 11.674 1.66964 10.3336 2.17422 9.11541C2.67881 7.89724 3.53329 6.85605 4.62962 6.12351C5.54055 5.51484 6.58446 5.14197 7.66784 5.03327C7.87681 5.01231 7.98129 5.00182 8.07948 5.04348C8.16049 5.07785 8.23988 5.14968 8.28216 5.22684C8.33342 5.32039 8.33342 5.4358 8.33342 5.66664V11C8.33342 11.2333 8.33342 11.35 8.37883 11.4391C8.41878 11.5175 8.48252 11.5813 8.56092 11.6212C8.65005 11.6666 8.76673 11.6666 9.00009 11.6666H14.3334Z" stroke="#F9F9F9" stroke-width="2" stroke-linecap="round" stroke-linejoin="round" />
            <path d="M11.6667 2.33333C11.6667 2.1025 11.6667 1.98708 11.718 1.89353C11.7603 1.81637 11.8397 1.74454 11.9207 1.71017C12.0189 1.66851 12.1234 1.67899 12.3323 1.69995C13.856 1.85279 15.2884 2.52692 16.3808 3.61929C17.4732 4.71166 18.1473 6.14408 18.3001 7.66775C18.3211 7.87672 18.3316 7.98121 18.2899 8.0794C18.2555 8.16041 18.1837 8.2398 18.1065 8.28208C18.013 8.33333 17.8976 8.33333 17.6667 8.33333L12.3334 8.33333C12.1001 8.33333 11.9834 8.33333 11.8943 8.28792C11.8159 8.24797 11.7521 8.18423 11.7122 8.10583C11.6667 8.0167 11.6667 7.90002 11.6667 7.66667L11.6667 2.33333Z" stroke="#F9F9F9" stroke-width="2" stroke-linecap="round" stroke-linejoin="round" />
        </g>
        <defs>
            <clipPath id="clip0_18746_5038">
                <rect width="20" height="20" fill="white" />
            </clipPath>
        </defs>
    </symbol>
    <symbol id="attach" width="18" height="18" viewBox="0 0 18 18" fill="none">
        <path d="M15.8063 10.6312L7.3688 2.19373C5.96255 0.731231 3.6563 0.731231 2.1938 2.13748C0.731299 3.54373 0.731299 5.90623 2.1938 7.31248L2.25005 7.36873L3.82505 8.99998L4.61255 8.21248L2.9813 6.58123C2.02505 5.62498 2.02505 3.99373 2.9813 3.03748C3.93755 2.08123 5.5688 2.02498 6.52505 2.98123L6.5813 3.03748L14.9625 11.4187C15.975 12.375 15.975 14.0062 15.0188 14.9625C14.0625 15.975 12.4313 15.975 11.475 15.0187L11.4188 14.9625L7.2563 10.8C6.6938 10.2375 6.75005 9.33748 7.2563 8.83123C7.52596 8.58696 7.87682 8.45167 8.24067 8.45167C8.60453 8.45167 8.95538 8.58696 9.22505 8.83123L11.5313 11.1375L12.3188 10.35L9.9563 7.98748C9.71683 7.76102 9.43491 7.58419 9.12679 7.4672C8.81866 7.3502 8.49042 7.29535 8.161 7.30581C7.83157 7.31627 7.50748 7.39182 7.20739 7.52813C6.90731 7.66443 6.63717 7.85878 6.41255 8.09998C5.51255 9.05623 5.51255 10.575 6.41255 11.5875L10.6313 15.8062C12.0375 17.2687 14.3438 17.2687 15.8063 15.8625C17.2688 14.4562 17.2688 12.0937 15.8063 10.6312C15.8063 10.6312 15.8063 10.6875 15.8063 10.6312V10.6312Z" fill="#F9F9F9" />
    </symbol>
    <symbol id="r-arrow" width="24" height="24" viewBox="0 0 24 24" fill="none">
        <path d="M14 17L19 12L14 7" stroke="#E3E3E3" stroke-width="2" stroke-linecap="round" stroke-linejoin="round" />
        <path d="M19 12H5" stroke="#E3E3E3" stroke-width="2" stroke-linecap="round" stroke-linejoin="round" />
    </symbol>
    <symbol id="burger" width="28" height="28" viewBox="0 0 28 28" fill="none">
        <path d="M3.5 14H24.5M3.5 7H24.5M10.5 21H24.5" stroke="#F9F9F9" stroke-width="2" stroke-linecap="round" stroke-linejoin="round" />
    </symbol>
</svg>
